<svg xmlns="http://www.w3.org/2000/svg" width="1400" height="788" viewBox="0 0 1400 788"><defs><linearGradient id="g" x1="0" x2="1" y1="0" y2="1"><stop stop-color="#c2410c"/><stop offset="1" stop-color="#020617"/></linearGradient><filter id="s"><feDropShadow dx="0" dy="20" stdDeviation="24" flood-opacity=".28"/></filter></defs><rect width="1400" height="788" fill="url(#g)"/><circle cx="1140" cy="140" r="230" fill="#fff" opacity=".08"/><circle cx="210" cy="650" r="260" fill="#fff" opacity=".06"/><g filter="url(#s)"><rect x="150" y="138" width="610" height="390" rx="34" fill="#f8fafc" opacity=".94"/><rect x="190" y="184" width="530" height="46" rx="12" fill="#e2e8f0"/><rect x="190" y="260" width="220" height="170" rx="22" fill="#c2410c" opacity=".82"/><rect x="438" y="260" width="282" height="32" rx="10" fill="#cbd5e1"/><rect x="438" y="314" width="234" height="28" rx="10" fill="#dbeafe"/><rect x="438" y="366" width="260" height="28" rx="10" fill="#e2e8f0"/><path d="M235 452 C320 392, 390 512, 505 452 S650 398,704 456" stroke="#0f172a" stroke-width="10" fill="none" opacity=".35"/></g><g fill="#fff" opacity=".9"><rect x="830" y="238" width="360" height="54" rx="18"/><rect x="870" y="330" width="300" height="42" rx="16" opacity=".72"/><rect x="900" y="404" width="250" height="42" rx="16" opacity=".55"/></g><text x="150" y="670" font-family="Arial, sans-serif" font-size="58" font-weight="800" fill="#fff">Game Design Field Notes</text><text x="153" y="718" font-family="Arial, sans-serif" font-size="27" fill="#dbeafe">Editorial support article for The Design Lab Blog</text></svg>